<mxfile host="app.diagrams.net" agent="Mozilla/5.0 (Macintosh; Intel Mac OS X 10_15_7) AppleWebKit/605.1.15 (KHTML, like Gecko) Version/17.3.1 Safari/605.1.15" version="24.8.2">
  <diagram name="페이지-1" id="Io8NVU5aoumr0R-sHtpD">
    <mxGraphModel dx="954" dy="675" grid="1" gridSize="10" guides="1" tooltips="1" connect="1" arrows="1" fold="1" page="1" pageScale="1" pageWidth="827" pageHeight="1169" math="0" shadow="0">
      <root>
        <mxCell id="0" />
        <mxCell id="1" parent="0" />
        <mxCell id="McjlA-WI6kXCxL5cptJx-35" style="edgeStyle=orthogonalEdgeStyle;rounded=0;orthogonalLoop=1;jettySize=auto;html=1;exitX=0;exitY=0.5;exitDx=0;exitDy=0;entryX=0;entryY=0.5;entryDx=0;entryDy=0;" edge="1" parent="1" source="McjlA-WI6kXCxL5cptJx-2" target="McjlA-WI6kXCxL5cptJx-14">
          <mxGeometry relative="1" as="geometry" />
        </mxCell>
        <mxCell id="McjlA-WI6kXCxL5cptJx-2" value="" style="rounded=1;whiteSpace=wrap;html=1;" vertex="1" parent="1">
          <mxGeometry x="235" y="90" width="200" height="50" as="geometry" />
        </mxCell>
        <mxCell id="McjlA-WI6kXCxL5cptJx-21" style="edgeStyle=orthogonalEdgeStyle;rounded=0;orthogonalLoop=1;jettySize=auto;html=1;exitX=0.5;exitY=1;exitDx=0;exitDy=0;entryX=0.5;entryY=0;entryDx=0;entryDy=0;" edge="1" parent="1" source="McjlA-WI6kXCxL5cptJx-6" target="McjlA-WI6kXCxL5cptJx-7">
          <mxGeometry relative="1" as="geometry" />
        </mxCell>
        <mxCell id="McjlA-WI6kXCxL5cptJx-6" value="" style="rounded=1;whiteSpace=wrap;html=1;" vertex="1" parent="1">
          <mxGeometry x="235" y="170" width="200" height="50" as="geometry" />
        </mxCell>
        <mxCell id="McjlA-WI6kXCxL5cptJx-22" style="edgeStyle=orthogonalEdgeStyle;rounded=0;orthogonalLoop=1;jettySize=auto;html=1;exitX=0.5;exitY=1;exitDx=0;exitDy=0;entryX=0.5;entryY=0;entryDx=0;entryDy=0;" edge="1" parent="1" source="McjlA-WI6kXCxL5cptJx-7" target="McjlA-WI6kXCxL5cptJx-8">
          <mxGeometry relative="1" as="geometry" />
        </mxCell>
        <mxCell id="McjlA-WI6kXCxL5cptJx-7" value="" style="rounded=1;whiteSpace=wrap;html=1;" vertex="1" parent="1">
          <mxGeometry x="200" y="250" width="270" height="50" as="geometry" />
        </mxCell>
        <mxCell id="McjlA-WI6kXCxL5cptJx-8" value="" style="rounded=1;whiteSpace=wrap;html=1;" vertex="1" parent="1">
          <mxGeometry x="270" y="330" width="130" height="30" as="geometry" />
        </mxCell>
        <mxCell id="McjlA-WI6kXCxL5cptJx-9" value="" style="rounded=1;whiteSpace=wrap;html=1;" vertex="1" parent="1">
          <mxGeometry x="255" y="630" width="160" height="30" as="geometry" />
        </mxCell>
        <mxCell id="McjlA-WI6kXCxL5cptJx-29" style="edgeStyle=orthogonalEdgeStyle;rounded=0;orthogonalLoop=1;jettySize=auto;html=1;exitX=0.5;exitY=1;exitDx=0;exitDy=0;entryX=0.5;entryY=0;entryDx=0;entryDy=0;" edge="1" parent="1" source="McjlA-WI6kXCxL5cptJx-10" target="McjlA-WI6kXCxL5cptJx-11">
          <mxGeometry relative="1" as="geometry" />
        </mxCell>
        <mxCell id="McjlA-WI6kXCxL5cptJx-10" value="" style="rounded=1;whiteSpace=wrap;html=1;" vertex="1" parent="1">
          <mxGeometry x="250" y="840" width="170" height="30" as="geometry" />
        </mxCell>
        <mxCell id="McjlA-WI6kXCxL5cptJx-30" style="edgeStyle=orthogonalEdgeStyle;rounded=0;orthogonalLoop=1;jettySize=auto;html=1;exitX=0.5;exitY=1;exitDx=0;exitDy=0;entryX=0.5;entryY=0;entryDx=0;entryDy=0;" edge="1" parent="1" source="McjlA-WI6kXCxL5cptJx-11" target="McjlA-WI6kXCxL5cptJx-12">
          <mxGeometry relative="1" as="geometry" />
        </mxCell>
        <mxCell id="McjlA-WI6kXCxL5cptJx-11" value="" style="rounded=1;whiteSpace=wrap;html=1;" vertex="1" parent="1">
          <mxGeometry x="254" y="900" width="160" height="30" as="geometry" />
        </mxCell>
        <mxCell id="McjlA-WI6kXCxL5cptJx-32" style="edgeStyle=orthogonalEdgeStyle;rounded=0;orthogonalLoop=1;jettySize=auto;html=1;exitX=0.5;exitY=1;exitDx=0;exitDy=0;" edge="1" parent="1" source="McjlA-WI6kXCxL5cptJx-12">
          <mxGeometry relative="1" as="geometry">
            <mxPoint x="334" y="1060" as="targetPoint" />
          </mxGeometry>
        </mxCell>
        <mxCell id="McjlA-WI6kXCxL5cptJx-12" value="" style="rounded=1;whiteSpace=wrap;html=1;" vertex="1" parent="1">
          <mxGeometry x="234" y="960" width="200" height="50" as="geometry" />
        </mxCell>
        <mxCell id="McjlA-WI6kXCxL5cptJx-13" value="" style="rounded=1;whiteSpace=wrap;html=1;" vertex="1" parent="1">
          <mxGeometry x="50" y="530" width="150" height="30" as="geometry" />
        </mxCell>
        <mxCell id="McjlA-WI6kXCxL5cptJx-14" value="" style="rounded=1;whiteSpace=wrap;html=1;" vertex="1" parent="1">
          <mxGeometry x="50" y="415" width="150" height="30" as="geometry" />
        </mxCell>
        <mxCell id="McjlA-WI6kXCxL5cptJx-20" style="edgeStyle=orthogonalEdgeStyle;rounded=0;orthogonalLoop=1;jettySize=auto;html=1;exitX=0.5;exitY=1;exitDx=0;exitDy=0;exitPerimeter=0;entryX=0.5;entryY=0;entryDx=0;entryDy=0;" edge="1" parent="1" source="McjlA-WI6kXCxL5cptJx-15" target="McjlA-WI6kXCxL5cptJx-2">
          <mxGeometry relative="1" as="geometry" />
        </mxCell>
        <mxCell id="McjlA-WI6kXCxL5cptJx-15" value="" style="strokeWidth=2;html=1;shape=mxgraph.flowchart.terminator;whiteSpace=wrap;" vertex="1" parent="1">
          <mxGeometry x="280" y="10" width="110" height="40" as="geometry" />
        </mxCell>
        <mxCell id="McjlA-WI6kXCxL5cptJx-24" style="edgeStyle=orthogonalEdgeStyle;rounded=0;orthogonalLoop=1;jettySize=auto;html=1;exitX=0.5;exitY=1;exitDx=0;exitDy=0;exitPerimeter=0;" edge="1" parent="1" source="McjlA-WI6kXCxL5cptJx-16">
          <mxGeometry relative="1" as="geometry">
            <mxPoint x="335" y="500" as="targetPoint" />
          </mxGeometry>
        </mxCell>
        <mxCell id="McjlA-WI6kXCxL5cptJx-33" style="edgeStyle=orthogonalEdgeStyle;rounded=0;orthogonalLoop=1;jettySize=auto;html=1;exitX=0;exitY=0.5;exitDx=0;exitDy=0;exitPerimeter=0;entryX=1;entryY=0.5;entryDx=0;entryDy=0;" edge="1" parent="1" source="McjlA-WI6kXCxL5cptJx-16" target="McjlA-WI6kXCxL5cptJx-14">
          <mxGeometry relative="1" as="geometry" />
        </mxCell>
        <mxCell id="McjlA-WI6kXCxL5cptJx-16" value="" style="strokeWidth=2;html=1;shape=mxgraph.flowchart.decision;whiteSpace=wrap;" vertex="1" parent="1">
          <mxGeometry x="245" y="390" width="180" height="80" as="geometry" />
        </mxCell>
        <mxCell id="McjlA-WI6kXCxL5cptJx-25" style="edgeStyle=orthogonalEdgeStyle;rounded=0;orthogonalLoop=1;jettySize=auto;html=1;exitX=0.5;exitY=1;exitDx=0;exitDy=0;exitPerimeter=0;entryX=0.5;entryY=0;entryDx=0;entryDy=0;" edge="1" parent="1" source="McjlA-WI6kXCxL5cptJx-17" target="McjlA-WI6kXCxL5cptJx-9">
          <mxGeometry relative="1" as="geometry" />
        </mxCell>
        <mxCell id="McjlA-WI6kXCxL5cptJx-34" style="edgeStyle=orthogonalEdgeStyle;rounded=0;orthogonalLoop=1;jettySize=auto;html=1;exitX=0;exitY=0.5;exitDx=0;exitDy=0;exitPerimeter=0;" edge="1" parent="1" source="McjlA-WI6kXCxL5cptJx-17" target="McjlA-WI6kXCxL5cptJx-13">
          <mxGeometry relative="1" as="geometry" />
        </mxCell>
        <mxCell id="McjlA-WI6kXCxL5cptJx-17" value="" style="strokeWidth=2;html=1;shape=mxgraph.flowchart.decision;whiteSpace=wrap;" vertex="1" parent="1">
          <mxGeometry x="245" y="505" width="180" height="80" as="geometry" />
        </mxCell>
        <mxCell id="McjlA-WI6kXCxL5cptJx-27" style="edgeStyle=orthogonalEdgeStyle;rounded=0;orthogonalLoop=1;jettySize=auto;html=1;exitX=0.5;exitY=1;exitDx=0;exitDy=0;exitPerimeter=0;entryX=0.5;entryY=0;entryDx=0;entryDy=0;" edge="1" parent="1" source="McjlA-WI6kXCxL5cptJx-18" target="McjlA-WI6kXCxL5cptJx-10">
          <mxGeometry relative="1" as="geometry">
            <mxPoint x="335" y="830" as="targetPoint" />
          </mxGeometry>
        </mxCell>
        <mxCell id="McjlA-WI6kXCxL5cptJx-18" value="" style="strokeWidth=2;html=1;shape=mxgraph.flowchart.decision;whiteSpace=wrap;" vertex="1" parent="1">
          <mxGeometry x="230" y="690" width="210" height="120" as="geometry" />
        </mxCell>
        <mxCell id="McjlA-WI6kXCxL5cptJx-19" value="" style="strokeWidth=2;html=1;shape=mxgraph.flowchart.terminator;whiteSpace=wrap;" vertex="1" parent="1">
          <mxGeometry x="280" y="1060" width="110" height="40" as="geometry" />
        </mxCell>
        <mxCell id="McjlA-WI6kXCxL5cptJx-23" style="edgeStyle=orthogonalEdgeStyle;rounded=0;orthogonalLoop=1;jettySize=auto;html=1;exitX=0.5;exitY=1;exitDx=0;exitDy=0;entryX=0.5;entryY=0;entryDx=0;entryDy=0;entryPerimeter=0;" edge="1" parent="1" source="McjlA-WI6kXCxL5cptJx-8" target="McjlA-WI6kXCxL5cptJx-16">
          <mxGeometry relative="1" as="geometry" />
        </mxCell>
        <mxCell id="McjlA-WI6kXCxL5cptJx-26" style="edgeStyle=orthogonalEdgeStyle;rounded=0;orthogonalLoop=1;jettySize=auto;html=1;exitX=0.5;exitY=1;exitDx=0;exitDy=0;entryX=0.5;entryY=0;entryDx=0;entryDy=0;entryPerimeter=0;" edge="1" parent="1" source="McjlA-WI6kXCxL5cptJx-9" target="McjlA-WI6kXCxL5cptJx-18">
          <mxGeometry relative="1" as="geometry" />
        </mxCell>
      </root>
    </mxGraphModel>
  </diagram>
</mxfile>
